#Comment line ignore any data following # character 
#Hierarchical Translation and Rotation (.htr) file 
[Header]	
#Header keywords are followed by a single value 
FileType HTR		#Single word string
DataType HTRS		#Translation followed by rotation and scale data
FileVersion 1		#integer
NumSegments 84		#integer
NumFrames 2		#integer
DataFrameRate 30		#integer, data frame rate in this file
EulerRotationOrder ZYX
CalibrationUnits mm
RotationUnits Degrees
GlobalAxisofGravity Y
BoneLengthAxis Y
ScaleFactor 1.00
[SegmentNames&Hierarchy]
#CHILD	PARENT
MASTER GLOBAL
root MASTER
chest root
L_mid_tent01 root
R_mid_tent01 root
spine01 root
Bip01_Neck chest
L_humerus chest
R_humerus chest
weapon_bone chest
Bip01_Head Bip01_Neck
eye_left_bone Bip01_Head
eye_right_bone Bip01_Head
L_forearm L_humerus
L_front_hand L_forearm
L_weapon_bone L_forearm
L_front_hand01_01 L_front_hand
L_front_hand02_01 L_front_hand
L_front_hand03_01 L_front_hand
L_front_hand01_02 L_front_hand01_01
L_front_hand02_02 L_front_hand02_01
L_front_hand03_02 L_front_hand03_01
R_forearm R_humerus
R_front_hand R_forearm
R_weapon_bone R_forearm
R_front_hand01_01 R_front_hand
R_front_hand02_01 R_front_hand
R_front_hand03_01 R_front_hand
R_front_hand01_02 R_front_hand01_01
R_front_hand02_02 R_front_hand02_01
R_front_hand03_02 R_front_hand03_01
null_rope01_connect L_mid_tent01
Rope1_Seg01 null_rope01_connect
Rope1_Seg02 Rope1_Seg01
Rope1_Seg03 Rope1_Seg02
Rope1_Seg04 Rope1_Seg03
Rope1_Seg05 Rope1_Seg04
Rope1_Seg06 Rope1_Seg05
Rope1_Seg07 Rope1_Seg06
Rope1_Seg09 Rope1_Seg07
L_mid_hand01 Rope1_Seg09
L_mid_hand02 Rope1_Seg09
L_mid_hand03 Rope1_Seg09
null_rope02_connect R_mid_tent01
Rope2_Seg01 null_rope02_connect
Rope2_Seg02 Rope2_Seg01
Rope2_Seg03 Rope2_Seg02
Rope2_Seg04 Rope2_Seg03
Rope2_Seg05 Rope2_Seg04
Rope2_Seg06 Rope2_Seg05
Rope2_Seg07 Rope2_Seg06
Rope2_Seg09 Rope2_Seg07
R_mid_hand01 Rope2_Seg09
R_mid_hand02 Rope2_Seg09
R_mid_hand03 Rope2_Seg09
spine02 spine01
spine03 spine02
pelvis spine03
null_rope03_connect pelvis
null_rope04_connect pelvis
Rope3_Seg01 null_rope03_connect
Rope3_Seg02 Rope3_Seg01
Rope3_Seg03 Rope3_Seg02
Rope3_Seg04 Rope3_Seg03
Rope3_Seg05 Rope3_Seg04
Rope3_Seg06 Rope3_Seg05
Rope3_Seg07 Rope3_Seg06
Rope3_Seg08 Rope3_Seg07
Rope3_Seg09 Rope3_Seg08
R_rear_hand01 Rope3_Seg09
R_rear_hand02 Rope3_Seg09
R_rear_hand03 Rope3_Seg09
Rope4_Seg01 null_rope04_connect
Rope4_Seg02 Rope4_Seg01
Rope4_Seg03 Rope4_Seg02
Rope4_Seg04 Rope4_Seg03
Rope4_Seg05 Rope4_Seg04
Rope4_Seg06 Rope4_Seg05
Rope4_Seg07 Rope4_Seg06
Rope4_Seg08 Rope4_Seg07
Rope4_Seg09 Rope4_Seg08
L_rear_hand01 Rope4_Seg09
L_rear_hand02 Rope4_Seg09
L_rear_hand03 Rope4_Seg09
[BasePosition]
#SegmentName Tx, Ty, Tz, Rx, Ry, Rz, BoneLength
MASTER 0.000000 0.000000 0.000000 -90.000000 0.000000 0.000000 10.000000 
root 0.000000 0.000000 0.000000 0.000000 0.000000 0.000000 10.000000 
chest 0.000000 0.000000 0.000000 0.000000 0.000000 0.000000 10.000000 
L_mid_tent01 0.000000 0.000000 0.000000 0.000000 0.000000 0.000000 10.000000 
R_mid_tent01 0.000000 0.000000 0.000000 0.000000 0.000000 0.000000 10.000000 
spine01 0.000000 0.000000 0.000000 0.000000 0.000000 0.000000 10.000000 
Bip01_Neck 0.000000 0.000000 0.000000 0.000000 0.000000 0.000000 10.000000 
L_humerus 0.000000 0.000000 0.000000 0.000000 0.000000 0.000000 10.000000 
R_humerus 0.000000 0.000000 0.000000 0.000000 0.000000 0.000000 10.000000 
weapon_bone 0.000000 0.000000 0.000000 0.000000 0.000000 0.000000 10.000000 
Bip01_Head 0.000000 0.000000 0.000000 0.000000 0.000000 0.000000 10.000000 
eye_left_bone 0.000000 0.000000 0.000000 0.000000 0.000000 0.000000 10.000000 
eye_right_bone 0.000000 0.000000 0.000000 0.000000 0.000000 0.000000 10.000000 
L_forearm 0.000000 0.000000 0.000000 0.000000 0.000000 0.000000 10.000000 
L_front_hand 0.000000 0.000000 0.000000 0.000000 0.000000 0.000000 10.000000 
L_weapon_bone 0.000000 0.000000 0.000000 0.000000 0.000000 0.000000 10.000000 
L_front_hand01_01 0.000000 0.000000 0.000000 0.000000 0.000000 0.000000 10.000000 
L_front_hand02_01 0.000000 0.000000 0.000000 0.000000 0.000000 0.000000 10.000000 
L_front_hand03_01 0.000000 0.000000 0.000000 0.000000 0.000000 0.000000 10.000000 
L_front_hand01_02 0.000000 0.000000 0.000000 0.000000 0.000000 0.000000 10.000000 
L_front_hand02_02 0.000000 0.000000 0.000000 0.000000 0.000000 0.000000 10.000000 
L_front_hand03_02 0.000000 0.000000 0.000000 0.000000 0.000000 0.000000 10.000000 
R_forearm 0.000000 0.000000 0.000000 0.000000 0.000000 0.000000 10.000000 
R_front_hand 0.000000 0.000000 0.000000 0.000000 0.000000 0.000000 10.000000 
R_weapon_bone 0.000000 0.000000 0.000000 0.000000 0.000000 0.000000 10.000000 
R_front_hand01_01 0.000000 0.000000 0.000000 0.000000 0.000000 0.000000 10.000000 
R_front_hand02_01 0.000000 0.000000 0.000000 0.000000 0.000000 0.000000 10.000000 
R_front_hand03_01 0.000000 0.000000 0.000000 0.000000 0.000000 0.000000 10.000000 
R_front_hand01_02 0.000000 0.000000 0.000000 0.000000 0.000000 0.000000 10.000000 
R_front_hand02_02 0.000000 0.000000 0.000000 0.000000 0.000000 0.000000 10.000000 
R_front_hand03_02 0.000000 0.000000 0.000000 0.000000 0.000000 0.000000 10.000000 
null_rope01_connect 0.000000 0.000000 0.000000 0.000000 0.000000 0.000000 10.000000 
Rope1_Seg01 0.000000 0.000000 0.000000 0.000000 0.000000 0.000000 10.000000 
Rope1_Seg02 0.000000 0.000000 0.000000 0.000000 0.000000 0.000000 10.000000 
Rope1_Seg03 0.000000 0.000000 0.000000 0.000000 0.000000 0.000000 10.000000 
Rope1_Seg04 0.000000 0.000000 0.000000 0.000000 0.000000 0.000000 10.000000 
Rope1_Seg05 0.000000 0.000000 0.000000 0.000000 0.000000 0.000000 10.000000 
Rope1_Seg06 0.000000 0.000000 0.000000 0.000000 0.000000 0.000000 10.000000 
Rope1_Seg07 0.000000 0.000000 0.000000 0.000000 0.000000 0.000000 10.000000 
Rope1_Seg09 0.000000 0.000000 0.000000 0.000000 0.000000 0.000000 10.000000 
L_mid_hand01 0.000000 0.000000 0.000000 0.000000 0.000000 0.000000 10.000000 
L_mid_hand02 0.000000 0.000000 0.000000 0.000000 0.000000 0.000000 10.000000 
L_mid_hand03 0.000000 0.000000 0.000000 0.000000 0.000000 0.000000 10.000000 
null_rope02_connect 0.000000 0.000000 0.000000 0.000000 0.000000 0.000000 10.000000 
Rope2_Seg01 0.000000 0.000000 0.000000 0.000000 0.000000 0.000000 10.000000 
Rope2_Seg02 0.000000 0.000000 0.000000 0.000000 0.000000 0.000000 10.000000 
Rope2_Seg03 0.000000 0.000000 0.000000 0.000000 0.000000 0.000000 10.000000 
Rope2_Seg04 0.000000 0.000000 0.000000 0.000000 0.000000 0.000000 10.000000 
Rope2_Seg05 0.000000 0.000000 0.000000 0.000000 0.000000 0.000000 10.000000 
Rope2_Seg06 0.000000 0.000000 0.000000 0.000000 0.000000 0.000000 10.000000 
Rope2_Seg07 0.000000 0.000000 0.000000 0.000000 0.000000 0.000000 10.000000 
Rope2_Seg09 0.000000 0.000000 0.000000 0.000000 0.000000 0.000000 10.000000 
R_mid_hand01 0.000000 0.000000 0.000000 0.000000 0.000000 0.000000 10.000000 
R_mid_hand02 0.000000 0.000000 0.000000 0.000000 0.000000 0.000000 10.000000 
R_mid_hand03 0.000000 0.000000 0.000000 0.000000 0.000000 0.000000 10.000000 
spine02 0.000000 0.000000 0.000000 0.000000 0.000000 0.000000 10.000000 
spine03 0.000000 0.000000 0.000000 0.000000 0.000000 0.000000 10.000000 
pelvis 0.000000 0.000000 0.000000 0.000000 0.000000 0.000000 10.000000 
null_rope03_connect 0.000000 0.000000 0.000000 0.000000 0.000000 0.000000 10.000000 
null_rope04_connect 0.000000 0.000000 0.000000 0.000000 0.000000 0.000000 10.000000 
Rope3_Seg01 0.000000 0.000000 0.000000 0.000000 0.000000 0.000000 10.000000 
Rope3_Seg02 0.000000 0.000000 0.000000 0.000000 0.000000 0.000000 10.000000 
Rope3_Seg03 0.000000 0.000000 0.000000 0.000000 0.000000 0.000000 10.000000 
Rope3_Seg04 0.000000 0.000000 0.000000 0.000000 0.000000 0.000000 10.000000 
Rope3_Seg05 0.000000 0.000000 0.000000 0.000000 0.000000 0.000000 10.000000 
Rope3_Seg06 0.000000 0.000000 0.000000 0.000000 0.000000 0.000000 10.000000 
Rope3_Seg07 0.000000 0.000000 0.000000 0.000000 0.000000 0.000000 10.000000 
Rope3_Seg08 0.000000 0.000000 0.000000 0.000000 0.000000 0.000000 10.000000 
Rope3_Seg09 0.000000 0.000000 0.000000 0.000000 0.000000 0.000000 10.000000 
R_rear_hand01 0.000000 0.000000 0.000000 0.000000 0.000000 0.000000 10.000000 
R_rear_hand02 0.000000 0.000000 0.000000 0.000000 0.000000 0.000000 10.000000 
R_rear_hand03 0.000000 0.000000 0.000000 0.000000 0.000000 0.000000 10.000000 
Rope4_Seg01 0.000000 0.000000 0.000000 0.000000 0.000000 0.000000 10.000000 
Rope4_Seg02 0.000000 0.000000 0.000000 0.000000 0.000000 0.000000 10.000000 
Rope4_Seg03 0.000000 0.000000 0.000000 0.000000 0.000000 0.000000 10.000000 
Rope4_Seg04 0.000000 0.000000 0.000000 0.000000 0.000000 0.000000 10.000000 
Rope4_Seg05 0.000000 0.000000 0.000000 0.000000 0.000000 0.000000 10.000000 
Rope4_Seg06 0.000000 0.000000 0.000000 0.000000 0.000000 0.000000 10.000000 
Rope4_Seg07 0.000000 0.000000 0.000000 0.000000 0.000000 0.000000 10.000000 
Rope4_Seg08 0.000000 0.000000 0.000000 0.000000 0.000000 0.000000 10.000000 
Rope4_Seg09 0.000000 0.000000 0.000000 0.000000 0.000000 0.000000 10.000000 
L_rear_hand01 0.000000 0.000000 0.000000 0.000000 0.000000 0.000000 10.000000 
L_rear_hand02 0.000000 0.000000 0.000000 0.000000 0.000000 0.000000 10.000000 
L_rear_hand03 0.000000 0.000000 0.000000 0.000000 0.000000 0.000000 10.000000 
#Beginning of Data. Separated by tabs
#Fr	Tx	Ty	Tz	Rx	Ry	Rz	SF
[MASTER]
20 0.000000 0.000000 0.000000 0.001660 0.001660 0.001660 0.000000
21 0.000000 0.000000 0.000000 0.001660 0.001660 0.001660 0.000000
[root]
20 -33.260284 -55.422546 1502.054810 -85.326202 -38.614506 -87.143456 1503.444824
21 -32.484840 -55.698875 1501.959839 -84.818352 -40.638451 -86.810944 1503.343140
[chest]
20 -84.512650 -34.090519 0.000000 -13.150847 -25.438490 170.125778 91.129311
21 -84.512650 -34.090519 0.000000 -12.583807 -22.651152 169.354645 91.129311
[L_mid_tent01]
20 27.299166 22.179010 -249.918701 3.862628 36.229195 81.347603 252.381683
21 27.299168 22.179007 -249.918701 3.862628 36.229202 81.347610 252.381683
[R_mid_tent01]
20 23.228794 24.509907 226.238495 160.432037 -47.061241 87.899765 228.744751
21 23.228794 24.509907 226.238495 160.432037 -47.061241 87.899765 228.744751
[spine01]
20 -0.361383 -0.195265 0.000000 0.002062 0.001122 32.879829 0.410763
21 -0.361383 -0.195265 0.000000 0.002062 0.001122 32.879829 0.410763
[Bip01_Neck]
20 165.484543 71.581718 0.000119 176.643677 -1.657967 43.431911 180.302734
21 165.484543 71.581718 0.000119 176.643677 -1.657967 43.431911 180.302734
[L_humerus]
20 -13.983130 -135.272980 -120.471481 166.898483 47.100094 -85.418564 181.680161
21 -13.983130 -135.272980 -120.471481 166.462006 53.664047 -90.369255 181.680161
[R_humerus]
20 -13.983309 -135.273102 125.287651 -168.805557 -22.085155 -103.532448 184.909012
21 -13.983309 -135.273102 125.287651 -167.970657 -29.755402 -103.420097 184.909012
[weapon_bone]
20 235.964890 -300.705902 0.000000 0.000000 -89.951546 -128.212341 382.234833
21 235.964890 -300.705902 0.000000 0.000000 -89.951546 -128.212341 382.234833
[Bip01_Head]
20 213.444199 185.715378 11.776932 27.528078 3.134487 -43.893349 283.173645
21 213.444199 185.715378 11.776932 25.378193 3.152751 -43.892590 283.173645
[eye_left_bone]
20 -24.626970 125.451866 -64.772606 0.000000 -90.000000 -99.840431 143.318359
21 -24.626970 125.451866 -64.772606 0.000000 -90.000000 -99.840431 143.318359
[eye_right_bone]
20 -24.626970 125.451866 64.327362 0.000000 -89.965736 80.156380 143.117676
21 -24.626970 125.451866 64.327362 0.000000 -89.965736 80.156380 143.117676
[L_forearm]
20 322.776093 0.000000 -0.000119 0.000396 -0.002314 -109.419975 322.776093
21 322.776093 0.000000 -0.000119 0.000396 -0.002314 -109.419975 322.776093
[L_front_hand]
20 241.149185 -0.042021 -3.300071 -178.667953 -1.835447 -27.422342 241.171753
21 241.149185 -0.042021 -3.300071 -178.667953 -1.835447 -27.422350 241.171753
[L_weapon_bone]
20 156.183838 0.000000 0.000000 0.000014 0.000007 0.000001 156.183838
21 156.183838 0.000000 0.000000 0.000014 0.000007 0.000001 156.183838
[L_front_hand01_01]
20 86.095154 20.947098 -0.655860 -0.299135 -0.518030 67.911942 88.609184
21 86.095154 20.947098 -0.655860 -0.306535 -0.513312 68.646957 88.609184
[L_front_hand02_01]
20 86.935165 -11.437475 24.513514 144.114838 -56.047676 -49.250378 91.046425
21 86.935165 -11.437475 24.513514 145.004044 -56.473930 -50.323578 91.046425
[L_front_hand03_01]
20 86.637497 -14.123976 -20.424902 -144.319244 54.262909 -51.171417 90.126129
21 86.637497 -14.123976 -20.424902 -145.151382 54.687630 -52.198425 90.126129
[L_front_hand01_02]
20 71.020905 -0.000179 0.000030 0.000317 -0.002326 -105.501534 71.020905
21 71.020905 -0.000179 0.000030 0.000317 -0.002326 -105.540344 71.020905
[L_front_hand02_02]
20 71.020927 -0.000119 0.000060 0.000317 -0.002326 -105.501534 71.020927
21 71.020927 -0.000119 0.000060 0.000317 -0.002326 -105.540344 71.020927
[L_front_hand03_02]
20 71.020905 -0.000060 0.000060 0.000317 -0.002326 -105.501534 71.020905
21 71.020905 -0.000060 0.000060 0.000317 -0.002326 -105.540344 71.020905
[R_forearm]
20 322.776428 -0.000060 0.000030 0.202103 0.065158 -108.062820 322.776428
21 322.776428 -0.000060 0.000030 0.202103 0.065158 -108.062805 322.776428
[R_front_hand]
20 238.847015 -0.006795 2.210259 -2.635298 -10.645461 -26.312506 238.857239
21 238.847015 -0.006795 2.210259 -2.635298 -10.645461 -26.312506 238.857239
[R_weapon_bone]
20 155.664093 0.002503 -0.000030 0.003487 0.001180 -90.988930 155.664078
21 155.664093 0.002503 -0.000030 0.003487 0.001180 -90.988930 155.664078
[R_front_hand01_01]
20 87.624611 14.231146 22.918642 -142.976746 -55.478233 47.985172 91.683487
21 87.624611 14.231146 22.918642 -144.694336 -56.325737 50.060089 91.683487
[R_front_hand02_01]
20 89.356956 14.367283 -19.491137 143.617325 53.874443 50.539886 92.579636
21 89.356956 14.367283 -19.491137 145.240677 54.711182 52.540722 92.579636
[R_front_hand03_01]
20 87.286232 -22.307278 -0.143439 0.095752 -0.445027 -67.192543 90.091743
21 87.286232 -22.307278 -0.143439 0.105409 -0.441003 -68.629555 90.091743
[R_front_hand01_02]
20 71.020905 0.000060 0.000119 0.002323 -0.000334 106.381714 71.020905
21 71.020905 0.000060 0.000119 0.002323 -0.000334 106.381714 71.020905
[R_front_hand02_02]
20 71.020844 -0.000030 -0.000119 0.002323 -0.000334 106.381714 71.020836
21 71.020844 -0.000030 -0.000119 0.002323 -0.000334 106.381714 71.020836
[R_front_hand03_02]
20 71.020905 0.000000 0.000030 0.002323 -0.000334 106.381714 71.020905
21 71.020905 0.000000 0.000030 0.002323 -0.000334 106.381714 71.020905
[null_rope01_connect]
20 328.732483 0.000000 -0.000238 -127.102814 -60.406494 175.695969 328.732483
21 328.732483 0.000000 -0.000238 -125.079453 -61.231998 175.667175 328.732483
[Rope1_Seg01]
20 -0.000026 0.000014 0.000056 -37.755497 27.285656 -82.118080 0.000063
21 -0.000025 0.000013 0.000051 -36.297005 24.214157 -97.226852 0.000058
[Rope1_Seg02]
20 139.999863 -0.000179 0.000000 -11.998501 6.534447 5.289130 139.999863
21 139.999863 -0.000179 0.000000 -39.943588 14.248911 9.627342 139.999863
[Rope1_Seg03]
20 139.999924 0.000060 -0.000060 -27.225609 17.012974 15.342192 139.999924
21 139.999924 0.000060 -0.000060 -30.389025 11.777302 33.774990 139.999924
[Rope1_Seg04]
20 139.999924 -0.000060 -0.000119 1.572418 -17.827972 12.931407 139.999924
21 139.999924 -0.000060 -0.000119 4.807028 -32.217598 9.665347 139.999924
[Rope1_Seg05]
20 139.999832 0.000119 -0.000060 4.368859 -20.943249 2.672185 139.999832
21 139.999832 0.000119 -0.000060 -1.098952 -18.469999 7.315431 139.999832
[Rope1_Seg06]
20 139.999954 0.000119 -0.000060 0.358975 -6.802190 2.492431 139.999954
21 139.999954 0.000119 -0.000060 -0.619267 -5.587110 2.473224 139.999954
[Rope1_Seg07]
20 139.999985 0.000060 0.000000 0.029902 -0.661125 0.248777 139.999985
21 139.999985 0.000060 0.000000 0.006603 0.011544 -0.003282 139.999985
[Rope1_Seg09]
20 121.602913 0.000119 -0.000089 -89.793175 -1.359789 0.847147 121.602913
21 121.602913 0.000119 -0.000089 -89.793175 -1.359789 0.847147 121.602913
[L_mid_hand01]
20 103.859421 1.038730 8.195221 130.544373 -67.584534 -38.866943 104.187431
21 103.859421 1.038730 8.195221 130.544373 -67.584534 -38.866943 104.187431
[L_mid_hand02]
20 105.572853 -4.139662 -10.864139 -168.923172 43.409309 -73.498886 106.211075
21 105.572853 -4.139662 -10.864139 -168.923172 43.409309 -73.498886 106.211075
[L_mid_hand03]
20 104.641464 17.579376 -3.913581 -6.012627 17.808178 74.893677 106.179977
21 104.641464 17.579376 -3.913581 -6.012627 17.808174 74.893669 106.179977
[null_rope02_connect]
20 328.732849 0.000179 -0.000119 -114.229828 33.179760 16.054895 328.732849
21 328.732849 0.000179 -0.000119 -112.359344 32.376728 15.817113 328.732849
[Rope2_Seg01]
20 -0.000069 0.000098 0.000000 -165.937820 51.863781 -48.456215 0.000120
21 -0.000076 0.000097 0.000000 -137.881805 45.768299 -33.843666 0.000123
[Rope2_Seg02]
20 139.999741 -0.000060 -0.000119 -3.360175 -2.960060 4.024112 139.999756
21 139.999741 -0.000060 -0.000119 -6.978116 -2.615303 5.902787 139.999756
[Rope2_Seg03]
20 140.000107 0.000030 0.000000 -3.897672 -5.711690 6.367779 140.000107
21 140.000107 0.000030 0.000000 -7.768557 -5.879819 9.524010 140.000107
[Rope2_Seg04]
20 139.999802 0.000000 -0.000060 -4.424115 -15.067103 12.028704 139.999802
21 139.999802 0.000000 -0.000060 -7.656281 -16.097582 16.656929 139.999802
[Rope2_Seg05]
20 139.999985 -0.000060 0.000119 -7.691135 -1.181442 24.348694 139.999985
21 139.999985 -0.000060 0.000119 -7.003112 -6.388236 23.739521 139.999985
[Rope2_Seg06]
20 139.999893 -0.000030 -0.000119 -2.441636 -1.485257 16.424923 139.999893
21 139.999893 -0.000030 -0.000119 -1.485194 -3.687977 18.899734 139.999893
[Rope2_Seg07]
20 139.999893 0.000060 -0.000060 -0.404719 -1.764784 8.022512 139.999893
21 139.999893 0.000060 -0.000060 0.552448 -3.466645 10.504345 139.999893
[Rope2_Seg09]
20 121.338966 0.000089 -0.000060 33.793236 -1.359788 -0.847141 121.338966
21 121.338966 0.000089 -0.000060 33.793236 -1.359788 -0.847141 121.338966
[R_mid_hand01]
20 104.680779 11.144459 -10.335981 -17.390701 44.882233 68.793839 105.778534
21 104.680779 11.144459 -10.335981 -16.212061 45.237240 70.462852 105.778534
[R_mid_hand02]
20 104.070427 2.443552 8.231699 50.967751 -66.804413 37.227455 104.424065
21 104.070427 2.443552 8.231699 49.067371 -67.749794 39.286461 104.424065
[R_mid_hand03]
20 106.028137 -11.221827 -5.996406 -176.756866 15.486362 -75.308266 106.788818
21 106.028137 -11.221827 -5.996406 -177.101105 15.551026 -76.585571 106.788818
[spine02]
20 129.756927 0.001550 0.000119 0.360061 -4.044797 -12.915058 129.756927
21 129.756927 0.001550 0.000119 0.360061 -4.044797 -12.915058 129.756927
[spine03]
20 78.614090 0.081579 -4.898992 1.896495 3.831288 16.473045 78.766632
21 78.614098 0.081584 -4.898992 1.896495 3.831288 16.473045 78.766640
[pelvis]
20 169.435242 0.051022 0.000000 -0.060465 -0.180225 14.087930 169.435257
21 169.435242 0.051022 0.000000 -0.060465 -0.180225 14.087930 169.435257
[null_rope03_connect]
20 -1.257226 -2.466202 137.391083 52.458614 -82.250069 25.508144 137.418976
21 -1.257226 -2.466202 137.391083 54.425461 -81.425217 25.538671 137.418976
[null_rope04_connect]
20 -1.259640 -2.480268 -137.844437 52.458614 -82.250069 25.508144 137.872513
21 -1.259640 -2.480268 -137.844437 54.425461 -81.425217 25.538671 137.872513
[Rope3_Seg01]
20 0.000010 0.000014 -0.000056 -131.833862 -26.077826 -78.605141 0.000058
21 0.000010 0.000013 -0.000051 -136.996826 -39.581493 -73.098915 0.000053
[Rope3_Seg02]
20 139.999924 -0.000119 0.000060 1.341494 -17.656067 8.355343 139.999924
21 139.999924 -0.000119 0.000060 5.695838 -20.827805 3.662647 139.999924
[Rope3_Seg03]
20 139.999924 -0.000119 0.000119 0.885983 -5.339231 1.529915 139.999924
21 139.999924 -0.000119 0.000119 2.180891 -6.139475 -0.551235 139.999924
[Rope3_Seg04]
20 139.999924 0.000119 0.000000 1.356195 -9.739935 8.919968 139.999924
21 139.999924 0.000119 0.000000 6.039164 -13.192519 12.533590 139.999924
[Rope3_Seg05]
20 139.999924 -0.000238 0.000060 0.791050 -9.587626 10.467139 139.999924
21 139.999924 -0.000238 0.000060 4.033333 -11.367316 15.932544 139.999924
[Rope3_Seg06]
20 139.999893 -0.000119 -0.000060 0.643650 -4.596840 4.986583 139.999893
21 139.999893 -0.000119 -0.000060 1.649264 -4.496356 7.034818 139.999893
[Rope3_Seg07]
20 139.999771 0.000060 -0.000119 0.599664 -3.049447 3.380191 139.999771
21 139.999771 0.000060 -0.000119 1.105657 -2.730501 4.572610 139.999771
[Rope3_Seg08]
20 139.999985 -0.000060 0.000000 0.570738 -1.863951 2.119458 139.999985
21 139.999985 -0.000060 0.000000 0.824863 -1.566715 2.755624 139.999985
[Rope3_Seg09]
20 90.185997 -0.000179 -0.000060 89.793228 -1.359877 -0.847183 90.185997
21 90.185997 -0.000179 -0.000060 89.793228 -1.359877 -0.847183 90.185997
[R_rear_hand01]
20 103.366196 -6.073594 -10.757982 -177.218140 24.518011 -72.727440 104.101845
21 103.366196 -6.073594 -10.757982 -177.714188 24.565962 -73.910950 104.101845
[R_rear_hand02]
20 100.509819 12.039542 -7.992327 -13.655097 36.621037 70.859306 101.543350
21 100.509819 12.039542 -7.992327 -12.874833 36.868488 72.167213 101.543350
[R_rear_hand03]
20 101.539970 5.215704 5.435467 72.467621 -70.792877 20.476612 101.819031
21 101.539970 5.215704 5.435467 71.484573 -71.816597 21.513800 101.819031
[Rope4_Seg01]
20 -0.000005 0.000028 -0.000201 64.742950 -23.890553 -142.160828 0.000203
21 -0.000006 0.000025 -0.000203 74.189507 -31.237997 -146.534286 0.000205
[Rope4_Seg02]
20 139.999985 0.000060 0.000119 -10.590963 24.293383 -6.760346 139.999985
21 139.999985 0.000060 0.000119 -14.120903 19.688795 -10.249165 139.999985
[Rope4_Seg03]
20 139.999924 0.000000 -0.000238 -2.834101 35.147015 -3.283262 139.999924
21 139.999924 0.000000 -0.000238 -9.263865 36.851486 -10.393940 139.999924
[Rope4_Seg04]
20 139.999985 0.000000 0.000119 3.645772 22.195827 -0.362049 139.999985
21 139.999985 0.000000 0.000119 2.515744 25.842661 -2.959117 139.999985
[Rope4_Seg05]
20 139.999802 -0.000060 -0.000119 3.642418 8.485537 -2.283556 139.999802
21 139.999802 -0.000060 -0.000119 3.844788 10.898056 -3.226000 139.999802
[Rope4_Seg06]
20 139.999924 0.000000 0.000060 4.823256 5.665146 -4.335271 139.999924
21 139.999924 0.000000 0.000060 6.317571 9.885018 -5.629227 139.999924
[Rope4_Seg07]
20 139.999802 0.000000 0.000000 6.204497 6.000549 -5.249772 139.999802
21 139.999802 0.000000 0.000000 8.918736 9.775520 -7.096667 139.999802
[Rope4_Seg08]
20 139.999924 0.000000 0.000119 3.637516 4.531600 -4.005097 139.999924
21 139.999924 0.000000 0.000119 5.560353 5.769746 -5.327405 139.999924
[Rope4_Seg09]
20 90.185791 0.000060 0.000060 -135.617828 2.228885 0.850567 90.185791
21 90.185791 0.000060 0.000060 -135.617828 2.228885 0.850567 90.185791
[L_rear_hand01]
20 101.696655 -8.392275 -7.654577 -12.874829 -36.868488 107.832764 102.329041
21 101.696655 -8.392275 -7.654577 -12.874829 -36.868488 107.832764 102.329041
[L_rear_hand02]
20 102.726799 -1.568258 5.773216 71.484581 71.816628 158.486160 102.900848
21 102.726799 -1.568258 5.773216 71.484581 71.816628 158.486160 102.900848
[L_rear_hand03]
20 104.552910 9.721220 -10.420293 -177.714203 -24.565960 -106.089035 105.519653
21 104.552910 9.721220 -10.420293 -177.714203 -24.565960 -106.089035 105.519653
